$MeshFormat
4.1 0 8
$EndMeshFormat
$Entities
16 24 10 1
1 0 0 0 0 
2 0.075 0 0 0 
3 0.075 0 0.0114 0 
4 0.0062 0 0.0114 0 
5 0.0062 0 0.1886 0 
6 0.075 0 0.1886 0 
7 0.075 0 0.2 0 
8 0 0 0.2 0 
9 0 3 0 0 
10 0.075 3 0 0 
14 0.075 3 0.0114 0 
18 0.0062 3 0.0114 0 
22 0.0062 3 0.1886 0 
26 0.075 3 0.1886 0 
30 0.075 3 0.2 0 
34 0 3 0.2 0 
1 0 0 0 0.075 0 0 0 2 1 -2 
2 0.075 0 0 0.075 0 0.0114 0 2 2 -3 
3 0.006199999999999997 0 0.0114 0.075 0 0.0114 0 2 3 -4 
4 0.0062 0 0.01139999999999999 0.0062 0 0.1886 0 2 4 -5 
5 0.006199999999999997 0 0.1886 0.075 0 0.1886 0 2 5 -6 
6 0.075 0 0.1886 0.075 0 0.2 0 2 6 -7 
7 0 0 0.2 0.075 0 0.2 0 2 7 -8 
8 0 0 0 0 0 0.2 0 2 8 -1 
10 0 3 0 0.075 3 0 0 2 9 -10 
11 0.075 3 0 0.075 3 0.0114 0 2 10 -14 
12 0.006199999999999997 3 0.0114 0.075 3 0.0114 0 2 14 -18 
13 0.0062 3 0.01139999999999999 0.0062 3 0.1886 0 2 18 -22 
14 0.006199999999999997 3 0.1886 0.075 3 0.1886 0 2 22 -26 
15 0.075 3 0.1886 0.075 3 0.2 0 2 26 -30 
16 0 3 0.2 0.075 3 0.2 0 2 30 -34 
17 0 3 0 0 3 0.2 0 2 34 -9 
19 0 0 0 0 3 0 0 2 1 -9 
20 0.075 0 0 0.075 3 0 0 2 2 -10 
24 0.075 0 0.0114 0.075 3 0.0114 0 2 3 -14 
28 0.0062 0 0.0114 0.0062 3 0.0114 0 2 4 -18 
32 0.0062 0 0.1886 0.0062 3 0.1886 0 2 5 -22 
36 0.075 0 0.1886 0.075 3 0.1886 0 2 6 -26 
40 0.075 0 0.2 0.075 3 0.2 0 2 7 -30 
44 0 0 0.2 0 3 0.2 0 2 8 -34 
1 0 0 0 0.075 0 0.2 0 8 1 2 3 4 5 6 7 8 
21 0 0 0 0.075 3 0 0 4 1 20 -10 -19 
25 0.075 0 0 0.075 3 0.0114 0 4 2 24 -11 -20 
29 0.006199999999999997 0 0.0114 0.075 3 0.0114 0 4 3 28 -12 -24 
33 0.0062 0 0.01139999999999999 0.0062 3 0.1886 0 4 4 32 -13 -28 
37 0.006199999999999997 0 0.1886 0.075 3 0.1886 0 4 5 36 -14 -32 
41 0.075 0 0.1886 0.075 3 0.2 0 4 6 40 -15 -36 
45 0 0 0.2 0.075 3 0.2 0 4 7 44 -16 -40 
49 0 0 0 0 3 0.2 0 4 8 19 -17 -44 
50 0 3 0 0.075 3 0.2 0 8 10 11 12 13 14 15 16 17 
1 0 0 0 0.075 3 0.2 0 10 -1 50 21 25 29 33 37 41 45 49 
$EndEntities
$Nodes
51 672 1 672
0 1 0 1
1
0 0 0
0 2 0 1
2
0.075 0 0
0 3 0 1
3
0.075 0 0.0114
0 4 0 1
4
0.0062 0 0.0114
0 5 0 1
5
0.0062 0 0.1886
0 6 0 1
6
0.075 0 0.1886
0 7 0 1
7
0.075 0 0.2
0 8 0 1
8
0 0 0.2
0 9 0 1
9
0 3 0
0 10 0 1
10
0.075 3 0
0 14 0 1
11
0.075 3 0.0114
0 18 0 1
12
0.0062 3 0.0114
0 22 0 1
13
0.0062 3 0.1886
0 26 0 1
14
0.075 3 0.1886
0 30 0 1
15
0.075 3 0.2
0 34 0 1
16
0 3 0.2
1 1 0 2
17
18
0.02499999999993847 0 0
0.049999999999937 0 0
1 2 0 0
1 3 0 2
19
20
0.05206666666672446 0 0.0114
0.02913333333339515 0 0.0114
1 4 0 7
21
22
23
24
25
26
27
0.0062 0 0.03354999999997459
0.0062 0 0.05569999999991122
0.0062 0 0.07784999999983971
0.0062 0 0.09999999999980352
0.0062 0 0.122149999999854
0.0062 0 0.144299999999899
0.0062 0 0.1664499999999495
1 5 0 2
28
29
0.0291333333332712 0 0.1886
0.05206666666660367 0 0.1886
1 6 0 0
1 7 0 2
30
31
0.05000000000006409 0 0.2
0.0250000000000636 0 0.2
1 8 0 7
32
33
34
35
36
37
38
0 0 0.1750000000000691
0 0 0.1500000000001383
0 0 0.1250000000002075
0 0 0.1000000000002739
0 0 0.07500000000020748
0 0 0.05000000000013835
0 0 0.02500000000006647
1 10 0 2
39
40
0.02499999999993847 3 0
0.049999999999937 3 0
1 11 0 0
1 12 0 2
41
42
0.05206666666672446 3 0.0114
0.02913333333339515 3 0.0114
1 13 0 7
43
44
45
46
47
48
49
0.0062 3 0.03354999999997459
0.0062 3 0.05569999999991122
0.0062 3 0.07784999999983971
0.0062 3 0.09999999999980352
0.0062 3 0.122149999999854
0.0062 3 0.144299999999899
0.0062 3 0.1664499999999495
1 14 0 2
50
51
0.0291333333332712 3 0.1886
0.05206666666660367 3 0.1886
1 15 0 0
1 16 0 2
52
53
0.05000000000006409 3 0.2
0.0250000000000636 3 0.2
1 17 0 7
54
55
56
57
58
59
60
0 3 0.1750000000000691
0 3 0.1500000000001383
0 3 0.1250000000002075
0 3 0.1000000000002739
0 3 0.07500000000020748
0 3 0.05000000000013835
0 3 0.02500000000006647
1 19 0 19
61
62
63
64
65
66
67
68
69
70
71
72
73
74
75
76
77
78
79
0 0.15 0
0 0.3 0
0 0.45 0
0 0.6000000000000001 0
0 0.75 0
0 0.8999999999999999 0
0 1.05 0
0 1.2 0
0 1.35 0
0 1.5 0
0 1.65 0
0 1.8 0
0 1.95 0
0 2.1 0
0 2.25 0
0 2.4 0
0 2.55 0
0 2.7 0
0 2.85 0
1 20 0 19
80
81
82
83
84
85
86
87
88
89
90
91
92
93
94
95
96
97
98
0.075 0.15 0
0.075 0.3 0
0.075 0.45 0
0.075 0.6000000000000001 0
0.075 0.75 0
0.075 0.8999999999999999 0
0.075 1.05 0
0.075 1.2 0
0.075 1.35 0
0.075 1.5 0
0.075 1.65 0
0.075 1.8 0
0.075 1.95 0
0.075 2.1 0
0.075 2.25 0
0.075 2.4 0
0.075 2.55 0
0.075 2.7 0
0.075 2.85 0
1 24 0 19
99
100
101
102
103
104
105
106
107
108
109
110
111
112
113
114
115
116
117
0.075 0.15 0.0114
0.075 0.3 0.0114
0.075 0.45 0.0114
0.075 0.6000000000000001 0.0114
0.075 0.75 0.0114
0.075 0.8999999999999999 0.0114
0.075 1.05 0.0114
0.075 1.2 0.0114
0.075 1.35 0.0114
0.075 1.5 0.0114
0.075 1.65 0.0114
0.075 1.8 0.0114
0.075 1.95 0.0114
0.075 2.1 0.0114
0.075 2.25 0.0114
0.075 2.4 0.0114
0.075 2.55 0.0114
0.075 2.7 0.0114
0.075 2.85 0.0114
1 28 0 19
118
119
120
121
122
123
124
125
126
127
128
129
130
131
132
133
134
135
136
0.0062 0.15 0.0114
0.0062 0.3 0.0114
0.0062 0.45 0.0114
0.0062 0.6000000000000001 0.0114
0.0062 0.75 0.0114
0.0062 0.8999999999999999 0.0114
0.0062 1.05 0.0114
0.0062 1.2 0.0114
0.0062 1.35 0.0114
0.0062 1.5 0.0114
0.0062 1.65 0.0114
0.0062 1.8 0.0114
0.0062 1.95 0.0114
0.0062 2.1 0.0114
0.0062 2.25 0.0114
0.0062 2.4 0.0114
0.0062 2.55 0.0114
0.0062 2.7 0.0114
0.0062 2.85 0.0114
1 32 0 19
137
138
139
140
141
142
143
144
145
146
147
148
149
150
151
152
153
154
155
0.0062 0.15 0.1886
0.0062 0.3 0.1886
0.0062 0.45 0.1886
0.0062 0.6000000000000001 0.1886
0.0062 0.75 0.1886
0.0062 0.8999999999999999 0.1886
0.0062 1.05 0.1886
0.0062 1.2 0.1886
0.0062 1.35 0.1886
0.0062 1.5 0.1886
0.0062 1.65 0.1886
0.0062 1.8 0.1886
0.0062 1.95 0.1886
0.0062 2.1 0.1886
0.0062 2.25 0.1886
0.0062 2.4 0.1886
0.0062 2.55 0.1886
0.0062 2.7 0.1886
0.0062 2.85 0.1886
1 36 0 19
156
157
158
159
160
161
162
163
164
165
166
167
168
169
170
171
172
173
174
0.075 0.15 0.1886
0.075 0.3 0.1886
0.075 0.45 0.1886
0.075 0.6000000000000001 0.1886
0.075 0.75 0.1886
0.075 0.8999999999999999 0.1886
0.075 1.05 0.1886
0.075 1.2 0.1886
0.075 1.35 0.1886
0.075 1.5 0.1886
0.075 1.65 0.1886
0.075 1.8 0.1886
0.075 1.95 0.1886
0.075 2.1 0.1886
0.075 2.25 0.1886
0.075 2.4 0.1886
0.075 2.55 0.1886
0.075 2.7 0.1886
0.075 2.85 0.1886
1 40 0 19
175
176
177
178
179
180
181
182
183
184
185
186
187
188
189
190
191
192
193
0.075 0.15 0.2
0.075 0.3 0.2
0.075 0.45 0.2
0.075 0.6000000000000001 0.2
0.075 0.75 0.2
0.075 0.8999999999999999 0.2
0.075 1.05 0.2
0.075 1.2 0.2
0.075 1.35 0.2
0.075 1.5 0.2
0.075 1.65 0.2
0.075 1.8 0.2
0.075 1.95 0.2
0.075 2.1 0.2
0.075 2.25 0.2
0.075 2.4 0.2
0.075 2.55 0.2
0.075 2.7 0.2
0.075 2.85 0.2
1 44 0 19
194
195
196
197
198
199
200
201
202
203
204
205
206
207
208
209
210
211
212
0 0.15 0.2
0 0.3 0.2
0 0.45 0.2
0 0.6000000000000001 0.2
0 0.75 0.2
0 0.8999999999999999 0.2
0 1.05 0.2
0 1.2 0.2
0 1.35 0.2
0 1.5 0.2
0 1.65 0.2
0 1.8 0.2
0 1.95 0.2
0 2.1 0.2
0 2.25 0.2
0 2.4 0.2
0 2.55 0.2
0 2.7 0.2
0 2.85 0.2
2 1 0 2
213
214
0.06301666666666693 0 0.1943
0.06301666666666536 0 0.0057
2 21 0 38
215
216
217
218
219
220
221
222
223
224
225
226
227
228
229
230
231
232
233
234
235
236
237
238
239
240
241
242
243
244
245
246
247
248
249
250
251
252
0.02499999999993847 0.15 0
0.02499999999993847 0.3 0
0.02499999999993847 0.45 0
0.02499999999993847 0.6000000000000001 0
0.02499999999993847 0.75 0
0.02499999999993847 0.8999999999999999 0
0.02499999999993847 1.05 0
0.02499999999993847 1.2 0
0.02499999999993847 1.35 0
0.02499999999993847 1.5 0
0.02499999999993847 1.65 0
0.02499999999993847 1.8 0
0.02499999999993847 1.95 0
0.02499999999993847 2.1 0
0.02499999999993847 2.25 0
0.02499999999993847 2.4 0
0.02499999999993847 2.55 0
0.02499999999993847 2.7 0
0.02499999999993847 2.85 0
0.049999999999937 0.15 0
0.049999999999937 0.3 0
0.049999999999937 0.45 0
0.049999999999937 0.6000000000000001 0
0.049999999999937 0.75 0
0.049999999999937 0.8999999999999999 0
0.049999999999937 1.05 0
0.049999999999937 1.2 0
0.049999999999937 1.35 0
0.049999999999937 1.5 0
0.049999999999937 1.65 0
0.049999999999937 1.8 0
0.049999999999937 1.95 0
0.049999999999937 2.1 0
0.049999999999937 2.25 0
0.049999999999937 2.4 0
0.049999999999937 2.55 0
0.049999999999937 2.7 0
0.049999999999937 2.85 0
2 25 0 0
2 29 0 38
253
254
255
256
257
258
259
260
261
262
263
264
265
266
267
268
269
270
271
272
273
274
275
276
277
278
279
280
281
282
283
284
285
286
287
288
289
290
0.05206666666672446 0.15 0.0114
0.05206666666672446 0.3 0.0114
0.05206666666672446 0.45 0.0114
0.05206666666672446 0.6000000000000001 0.0114
0.05206666666672446 0.75 0.0114
0.05206666666672446 0.8999999999999999 0.0114
0.05206666666672446 1.05 0.0114
0.05206666666672446 1.2 0.0114
0.05206666666672446 1.35 0.0114
0.05206666666672446 1.5 0.0114
0.05206666666672446 1.65 0.0114
0.05206666666672446 1.8 0.0114
0.05206666666672446 1.95 0.0114
0.05206666666672446 2.1 0.0114
0.05206666666672446 2.25 0.0114
0.05206666666672446 2.4 0.0114
0.05206666666672446 2.55 0.0114
0.05206666666672446 2.7 0.0114
0.05206666666672446 2.85 0.0114
0.02913333333339515 0.15 0.0114
0.02913333333339515 0.3 0.0114
0.02913333333339515 0.45 0.0114
0.02913333333339515 0.6000000000000001 0.0114
0.02913333333339515 0.75 0.0114
0.02913333333339515 0.8999999999999999 0.0114
0.02913333333339515 1.05 0.0114
0.02913333333339515 1.2 0.0114
0.02913333333339515 1.35 0.0114
0.02913333333339515 1.5 0.0114
0.02913333333339515 1.65 0.0114
0.02913333333339515 1.8 0.0114
0.02913333333339515 1.95 0.0114
0.02913333333339515 2.1 0.0114
0.02913333333339515 2.25 0.0114
0.02913333333339515 2.4 0.0114
0.02913333333339515 2.55 0.0114
0.02913333333339515 2.7 0.0114
0.02913333333339515 2.85 0.0114
2 33 0 133
291
292
293
294
295
296
297
298
299
300
301
302
303
304
305
306
307
308
309
310
311
312
313
314
315
316
317
318
319
320
321
322
323
324
325
326
327
328
329
330
331
332
333
334
335
336
337
338
339
340
341
342
343
344
345
346
347
348
349
350
351
352
353
354
355
356
357
358
359
360
361
362
363
364
365
366
367
368
369
370
371
372
373
374
375
376
377
378
379
380
381
382
383
384
385
386
387
388
389
390
391
392
393
394
395
396
397
398
399
400
401
402
403
404
405
406
407
408
409
410
411
412
413
414
415
416
417
418
419
420
421
422
423
0.0062 0.15 0.03354999999997459
0.0062 0.3 0.03354999999997459
0.0062 0.45 0.03354999999997459
0.0062 0.6000000000000001 0.03354999999997459
0.0062 0.75 0.03354999999997459
0.0062 0.8999999999999999 0.03354999999997459
0.0062 1.05 0.03354999999997459
0.0062 1.2 0.03354999999997459
0.0062 1.35 0.03354999999997459
0.0062 1.5 0.03354999999997459
0.0062 1.65 0.03354999999997459
0.0062 1.8 0.03354999999997459
0.0062 1.95 0.03354999999997459
0.0062 2.1 0.03354999999997459
0.0062 2.25 0.03354999999997459
0.0062 2.4 0.03354999999997459
0.0062 2.55 0.03354999999997459
0.0062 2.7 0.03354999999997459
0.0062 2.85 0.03354999999997459
0.0062 0.15 0.05569999999991122
0.0062 0.3 0.05569999999991122
0.0062 0.45 0.05569999999991122
0.0062 0.6000000000000001 0.05569999999991122
0.0062 0.75 0.05569999999991122
0.0062 0.8999999999999999 0.05569999999991122
0.0062 1.05 0.05569999999991122
0.0062 1.2 0.05569999999991122
0.0062 1.35 0.05569999999991122
0.0062 1.5 0.05569999999991122
0.0062 1.65 0.05569999999991122
0.0062 1.8 0.05569999999991122
0.0062 1.95 0.05569999999991122
0.0062 2.1 0.05569999999991122
0.0062 2.25 0.05569999999991122
0.0062 2.4 0.05569999999991122
0.0062 2.55 0.05569999999991122
0.0062 2.7 0.05569999999991122
0.0062 2.85 0.05569999999991122
0.0062 0.15 0.07784999999983971
0.0062 0.3 0.07784999999983971
0.0062 0.45 0.07784999999983971
0.0062 0.6000000000000001 0.07784999999983971
0.0062 0.75 0.07784999999983971
0.0062 0.8999999999999999 0.07784999999983971
0.0062 1.05 0.07784999999983971
0.0062 1.2 0.07784999999983971
0.0062 1.35 0.07784999999983971
0.0062 1.5 0.07784999999983971
0.0062 1.65 0.07784999999983971
0.0062 1.8 0.07784999999983971
0.0062 1.95 0.07784999999983971
0.0062 2.1 0.07784999999983971
0.0062 2.25 0.07784999999983971
0.0062 2.4 0.07784999999983971
0.0062 2.55 0.07784999999983971
0.0062 2.7 0.07784999999983971
0.0062 2.85 0.07784999999983971
0.0062 0.15 0.09999999999980352
0.0062 0.3 0.09999999999980352
0.0062 0.45 0.09999999999980352
0.0062 0.6000000000000001 0.09999999999980352
0.0062 0.75 0.09999999999980352
0.0062 0.8999999999999999 0.09999999999980352
0.0062 1.05 0.09999999999980352
0.0062 1.2 0.09999999999980352
0.0062 1.35 0.09999999999980352
0.0062 1.5 0.09999999999980352
0.0062 1.65 0.09999999999980352
0.0062 1.8 0.09999999999980352
0.0062 1.95 0.09999999999980352
0.0062 2.1 0.09999999999980352
0.0062 2.25 0.09999999999980352
0.0062 2.4 0.09999999999980352
0.0062 2.55 0.09999999999980352
0.0062 2.7 0.09999999999980352
0.0062 2.85 0.09999999999980352
0.0062 0.15 0.122149999999854
0.0062 0.3 0.122149999999854
0.0062 0.45 0.122149999999854
0.0062 0.6000000000000001 0.122149999999854
0.0062 0.75 0.122149999999854
0.0062 0.8999999999999999 0.122149999999854
0.0062 1.05 0.122149999999854
0.0062 1.2 0.122149999999854
0.0062 1.35 0.122149999999854
0.0062 1.5 0.122149999999854
0.0062 1.65 0.122149999999854
0.0062 1.8 0.122149999999854
0.0062 1.95 0.122149999999854
0.0062 2.1 0.122149999999854
0.0062 2.25 0.122149999999854
0.0062 2.4 0.122149999999854
0.0062 2.55 0.122149999999854
0.0062 2.7 0.122149999999854
0.0062 2.85 0.122149999999854
0.0062 0.15 0.144299999999899
0.0062 0.3 0.144299999999899
0.0062 0.45 0.144299999999899
0.0062 0.6000000000000001 0.144299999999899
0.0062 0.75 0.144299999999899
0.0062 0.8999999999999999 0.144299999999899
0.0062 1.05 0.144299999999899
0.0062 1.2 0.144299999999899
0.0062 1.35 0.144299999999899
0.0062 1.5 0.144299999999899
0.0062 1.65 0.144299999999899
0.0062 1.8 0.144299999999899
0.0062 1.95 0.144299999999899
0.0062 2.1 0.144299999999899
0.0062 2.25 0.144299999999899
0.0062 2.4 0.144299999999899
0.0062 2.55 0.144299999999899
0.0062 2.7 0.144299999999899
0.0062 2.85 0.144299999999899
0.0062 0.15 0.1664499999999495
0.0062 0.3 0.1664499999999495
0.0062 0.45 0.1664499999999495
0.0062 0.6000000000000001 0.1664499999999495
0.0062 0.75 0.1664499999999495
0.0062 0.8999999999999999 0.1664499999999495
0.0062 1.05 0.1664499999999495
0.0062 1.2 0.1664499999999495
0.0062 1.35 0.1664499999999495
0.0062 1.5 0.1664499999999495
0.0062 1.65 0.1664499999999495
0.0062 1.8 0.1664499999999495
0.0062 1.95 0.1664499999999495
0.0062 2.1 0.1664499999999495
0.0062 2.25 0.1664499999999495
0.0062 2.4 0.1664499999999495
0.0062 2.55 0.1664499999999495
0.0062 2.7 0.1664499999999495
0.0062 2.85 0.1664499999999495
2 37 0 38
424
425
426
427
428
429
430
431
432
433
434
435
436
437
438
439
440
441
442
443
444
445
446
447
448
449
450
451
452
453
454
455
456
457
458
459
460
461
0.0291333333332712 0.15 0.1886
0.0291333333332712 0.3 0.1886
0.0291333333332712 0.45 0.1886
0.0291333333332712 0.6000000000000001 0.1886
0.0291333333332712 0.75 0.1886
0.0291333333332712 0.8999999999999999 0.1886
0.0291333333332712 1.05 0.1886
0.0291333333332712 1.2 0.1886
0.0291333333332712 1.35 0.1886
0.0291333333332712 1.5 0.1886
0.0291333333332712 1.65 0.1886
0.0291333333332712 1.8 0.1886
0.0291333333332712 1.95 0.1886
0.0291333333332712 2.1 0.1886
0.0291333333332712 2.25 0.1886
0.0291333333332712 2.4 0.1886
0.0291333333332712 2.55 0.1886
0.0291333333332712 2.7 0.1886
0.0291333333332712 2.85 0.1886
0.05206666666660367 0.15 0.1886
0.05206666666660367 0.3 0.1886
0.05206666666660367 0.45 0.1886
0.05206666666660367 0.6000000000000001 0.1886
0.05206666666660367 0.75 0.1886
0.05206666666660367 0.8999999999999999 0.1886
0.05206666666660367 1.05 0.1886
0.05206666666660367 1.2 0.1886
0.05206666666660367 1.35 0.1886
0.05206666666660367 1.5 0.1886
0.05206666666660367 1.65 0.1886
0.05206666666660367 1.8 0.1886
0.05206666666660367 1.95 0.1886
0.05206666666660367 2.1 0.1886
0.05206666666660367 2.25 0.1886
0.05206666666660367 2.4 0.1886
0.05206666666660367 2.55 0.1886
0.05206666666660367 2.7 0.1886
0.05206666666660367 2.85 0.1886
2 41 0 0
2 45 0 38
462
463
464
465
466
467
468
469
470
471
472
473
474
475
476
477
478
479
480
481
482
483
484
485
486
487
488
489
490
491
492
493
494
495
496
497
498
499
0.05000000000006409 0.15 0.2
0.05000000000006409 0.3 0.2
0.05000000000006409 0.45 0.2
0.05000000000006409 0.6000000000000001 0.2
0.05000000000006409 0.75 0.2
0.05000000000006409 0.8999999999999999 0.2
0.05000000000006409 1.05 0.2
0.05000000000006409 1.2 0.2
0.05000000000006409 1.35 0.2
0.05000000000006409 1.5 0.2
0.05000000000006409 1.65 0.2
0.05000000000006409 1.8 0.2
0.05000000000006409 1.95 0.2
0.05000000000006409 2.1 0.2
0.05000000000006409 2.25 0.2
0.05000000000006409 2.4 0.2
0.05000000000006409 2.55 0.2
0.05000000000006409 2.7 0.2
0.05000000000006409 2.85 0.2
0.0250000000000636 0.15 0.2
0.0250000000000636 0.3 0.2
0.0250000000000636 0.45 0.2
0.0250000000000636 0.6000000000000001 0.2
0.0250000000000636 0.75 0.2
0.0250000000000636 0.8999999999999999 0.2
0.0250000000000636 1.05 0.2
0.0250000000000636 1.2 0.2
0.0250000000000636 1.35 0.2
0.0250000000000636 1.5 0.2
0.0250000000000636 1.65 0.2
0.0250000000000636 1.8 0.2
0.0250000000000636 1.95 0.2
0.0250000000000636 2.1 0.2
0.0250000000000636 2.25 0.2
0.0250000000000636 2.4 0.2
0.0250000000000636 2.55 0.2
0.0250000000000636 2.7 0.2
0.0250000000000636 2.85 0.2
2 49 0 133
500
501
502
503
504
505
506
507
508
509
510
511
512
513
514
515
516
517
518
519
520
521
522
523
524
525
526
527
528
529
530
531
532
533
534
535
536
537
538
539
540
541
542
543
544
545
546
547
548
549
550
551
552
553
554
555
556
557
558
559
560
561
562
563
564
565
566
567
568
569
570
571
572
573
574
575
576
577
578
579
580
581
582
583
584
585
586
587
588
589
590
591
592
593
594
595
596
597
598
599
600
601
602
603
604
605
606
607
608
609
610
611
612
613
614
615
616
617
618
619
620
621
622
623
624
625
626
627
628
629
630
631
632
0 0.15 0.1750000000000691
0 0.3 0.1750000000000691
0 0.45 0.1750000000000691
0 0.6000000000000001 0.1750000000000691
0 0.75 0.1750000000000691
0 0.8999999999999999 0.1750000000000691
0 1.05 0.1750000000000691
0 1.2 0.1750000000000691
0 1.35 0.1750000000000691
0 1.5 0.1750000000000691
0 1.65 0.1750000000000691
0 1.8 0.1750000000000691
0 1.95 0.1750000000000691
0 2.1 0.1750000000000691
0 2.25 0.1750000000000691
0 2.4 0.1750000000000691
0 2.55 0.1750000000000691
0 2.7 0.1750000000000691
0 2.85 0.1750000000000691
0 0.15 0.1500000000001383
0 0.3 0.1500000000001383
0 0.45 0.1500000000001383
0 0.6000000000000001 0.1500000000001383
0 0.75 0.1500000000001383
0 0.8999999999999999 0.1500000000001383
0 1.05 0.1500000000001383
0 1.2 0.1500000000001383
0 1.35 0.1500000000001383
0 1.5 0.1500000000001383
0 1.65 0.1500000000001383
0 1.8 0.1500000000001383
0 1.95 0.1500000000001383
0 2.1 0.1500000000001383
0 2.25 0.1500000000001383
0 2.4 0.1500000000001383
0 2.55 0.1500000000001383
0 2.7 0.1500000000001383
0 2.85 0.1500000000001383
0 0.15 0.1250000000002075
0 0.3 0.1250000000002075
0 0.45 0.1250000000002075
0 0.6000000000000001 0.1250000000002075
0 0.75 0.1250000000002075
0 0.8999999999999999 0.1250000000002075
0 1.05 0.1250000000002075
0 1.2 0.1250000000002075
0 1.35 0.1250000000002075
0 1.5 0.1250000000002075
0 1.65 0.1250000000002075
0 1.8 0.1250000000002075
0 1.95 0.1250000000002075
0 2.1 0.1250000000002075
0 2.25 0.1250000000002075
0 2.4 0.1250000000002075
0 2.55 0.1250000000002075
0 2.7 0.1250000000002075
0 2.85 0.1250000000002075
0 0.15 0.1000000000002739
0 0.3 0.1000000000002739
0 0.45 0.1000000000002739
0 0.6000000000000001 0.1000000000002739
0 0.75 0.1000000000002739
0 0.8999999999999999 0.1000000000002739
0 1.05 0.1000000000002739
0 1.2 0.1000000000002739
0 1.35 0.1000000000002739
0 1.5 0.1000000000002739
0 1.65 0.1000000000002739
0 1.8 0.1000000000002739
0 1.95 0.1000000000002739
0 2.1 0.1000000000002739
0 2.25 0.1000000000002739
0 2.4 0.1000000000002739
0 2.55 0.1000000000002739
0 2.7 0.1000000000002739
0 2.85 0.1000000000002739
0 0.15 0.07500000000020748
0 0.3 0.07500000000020748
0 0.45 0.07500000000020748
0 0.6000000000000001 0.07500000000020748
0 0.75 0.07500000000020748
0 0.8999999999999999 0.07500000000020748
0 1.05 0.07500000000020748
0 1.2 0.07500000000020748
0 1.35 0.07500000000020748
0 1.5 0.07500000000020748
0 1.65 0.07500000000020748
0 1.8 0.07500000000020748
0 1.95 0.07500000000020748
0 2.1 0.07500000000020748
0 2.25 0.07500000000020748
0 2.4 0.07500000000020748
0 2.55 0.07500000000020748
0 2.7 0.07500000000020748
0 2.85 0.07500000000020748
0 0.15 0.05000000000013835
0 0.3 0.05000000000013835
0 0.45 0.05000000000013835
0 0.6000000000000001 0.05000000000013835
0 0.75 0.05000000000013835
0 0.8999999999999999 0.05000000000013835
0 1.05 0.05000000000013835
0 1.2 0.05000000000013835
0 1.35 0.05000000000013835
0 1.5 0.05000000000013835
0 1.65 0.05000000000013835
0 1.8 0.05000000000013835
0 1.95 0.05000000000013835
0 2.1 0.05000000000013835
0 2.25 0.05000000000013835
0 2.4 0.05000000000013835
0 2.55 0.05000000000013835
0 2.7 0.05000000000013835
0 2.85 0.05000000000013835
0 0.15 0.02500000000006647
0 0.3 0.02500000000006647
0 0.45 0.02500000000006647
0 0.6000000000000001 0.02500000000006647
0 0.75 0.02500000000006647
0 0.8999999999999999 0.02500000000006647
0 1.05 0.02500000000006647
0 1.2 0.02500000000006647
0 1.35 0.02500000000006647
0 1.5 0.02500000000006647
0 1.65 0.02500000000006647
0 1.8 0.02500000000006647
0 1.95 0.02500000000006647
0 2.1 0.02500000000006647
0 2.25 0.02500000000006647
0 2.4 0.02500000000006647
0 2.55 0.02500000000006647
0 2.7 0.02500000000006647
0 2.85 0.02500000000006647
2 50 0 2
633
634
0.06301666666666693 3 0.1943
0.06301666666666536 3 0.0057
3 1 0 38
635
636
637
638
639
640
641
642
643
644
645
646
647
648
649
650
651
652
653
654
655
656
657
658
659
660
661
662
663
664
665
666
667
668
669
670
671
672
0.06301666666666693 0.15 0.1943
0.06301666666666693 0.3 0.1943
0.06301666666666693 0.45 0.1943
0.06301666666666693 0.6000000000000001 0.1943
0.06301666666666693 0.75 0.1943
0.06301666666666693 0.8999999999999999 0.1943
0.06301666666666693 1.05 0.1943
0.06301666666666693 1.2 0.1943
0.06301666666666693 1.35 0.1943
0.06301666666666693 1.5 0.1943
0.06301666666666693 1.65 0.1943
0.06301666666666693 1.8 0.1943
0.06301666666666693 1.95 0.1943
0.06301666666666693 2.1 0.1943
0.06301666666666693 2.25 0.1943
0.06301666666666693 2.4 0.1943
0.06301666666666693 2.55 0.1943
0.06301666666666693 2.7 0.1943
0.06301666666666693 2.85 0.1943
0.06301666666666536 0.15 0.0057
0.06301666666666536 0.3 0.0057
0.06301666666666536 0.45 0.0057
0.06301666666666536 0.6000000000000001 0.0057
0.06301666666666536 0.75 0.0057
0.06301666666666536 0.8999999999999999 0.0057
0.06301666666666536 1.05 0.0057
0.06301666666666536 1.2 0.0057
0.06301666666666536 1.35 0.0057
0.06301666666666536 1.5 0.0057
0.06301666666666536 1.65 0.0057
0.06301666666666536 1.8 0.0057
0.06301666666666536 1.95 0.0057
0.06301666666666536 2.1 0.0057
0.06301666666666536 2.25 0.0057
0.06301666666666536 2.4 0.0057
0.06301666666666536 2.55 0.0057
0.06301666666666536 2.7 0.0057
0.06301666666666536 2.85 0.0057
$EndNodes
$Elements
51 1540 1 1540
0 1 15 1
1 1 
0 2 15 1
2 2 
0 3 15 1
3 3 
0 4 15 1
4 4 
0 5 15 1
5 5 
0 6 15 1
6 6 
0 7 15 1
7 7 
0 8 15 1
8 8 
0 9 15 1
9 9 
0 10 15 1
10 10 
0 14 15 1
11 11 
0 18 15 1
12 12 
0 22 15 1
13 13 
0 26 15 1
14 14 
0 30 15 1
15 15 
0 34 15 1
16 16 
1 1 1 3
17 1 17 
18 17 18 
19 18 2 
1 2 1 1
20 2 3 
1 3 1 3
21 3 19 
22 19 20 
23 20 4 
1 4 1 8
24 4 21 
25 21 22 
26 22 23 
27 23 24 
28 24 25 
29 25 26 
30 26 27 
31 27 5 
1 5 1 3
32 5 28 
33 28 29 
34 29 6 
1 6 1 1
35 6 7 
1 7 1 3
36 7 30 
37 30 31 
38 31 8 
1 8 1 8
39 8 32 
40 32 33 
41 33 34 
42 34 35 
43 35 36 
44 36 37 
45 37 38 
46 38 1 
1 10 1 3
47 9 39 
48 39 40 
49 40 10 
1 11 1 1
50 10 11 
1 12 1 3
51 11 41 
52 41 42 
53 42 12 
1 13 1 8
54 12 43 
55 43 44 
56 44 45 
57 45 46 
58 46 47 
59 47 48 
60 48 49 
61 49 13 
1 14 1 3
62 13 50 
63 50 51 
64 51 14 
1 15 1 1
65 14 15 
1 16 1 3
66 15 52 
67 52 53 
68 53 16 
1 17 1 8
69 16 54 
70 54 55 
71 55 56 
72 56 57 
73 57 58 
74 58 59 
75 59 60 
76 60 9 
1 19 1 20
77 1 61 
78 61 62 
79 62 63 
80 63 64 
81 64 65 
82 65 66 
83 66 67 
84 67 68 
85 68 69 
86 69 70 
87 70 71 
88 71 72 
89 72 73 
90 73 74 
91 74 75 
92 75 76 
93 76 77 
94 77 78 
95 78 79 
96 79 9 
1 20 1 20
97 2 80 
98 80 81 
99 81 82 
100 82 83 
101 83 84 
102 84 85 
103 85 86 
104 86 87 
105 87 88 
106 88 89 
107 89 90 
108 90 91 
109 91 92 
110 92 93 
111 93 94 
112 94 95 
113 95 96 
114 96 97 
115 97 98 
116 98 10 
1 24 1 20
117 3 99 
118 99 100 
119 100 101 
120 101 102 
121 102 103 
122 103 104 
123 104 105 
124 105 106 
125 106 107 
126 107 108 
127 108 109 
128 109 110 
129 110 111 
130 111 112 
131 112 113 
132 113 114 
133 114 115 
134 115 116 
135 116 117 
136 117 11 
1 28 1 20
137 4 118 
138 118 119 
139 119 120 
140 120 121 
141 121 122 
142 122 123 
143 123 124 
144 124 125 
145 125 126 
146 126 127 
147 127 128 
148 128 129 
149 129 130 
150 130 131 
151 131 132 
152 132 133 
153 133 134 
154 134 135 
155 135 136 
156 136 12 
1 32 1 20
157 5 137 
158 137 138 
159 138 139 
160 139 140 
161 140 141 
162 141 142 
163 142 143 
164 143 144 
165 144 145 
166 145 146 
167 146 147 
168 147 148 
169 148 149 
170 149 150 
171 150 151 
172 151 152 
173 152 153 
174 153 154 
175 154 155 
176 155 13 
1 36 1 20
177 6 156 
178 156 157 
179 157 158 
180 158 159 
181 159 160 
182 160 161 
183 161 162 
184 162 163 
185 163 164 
186 164 165 
187 165 166 
188 166 167 
189 167 168 
190 168 169 
191 169 170 
192 170 171 
193 171 172 
194 172 173 
195 173 174 
196 174 14 
1 40 1 20
197 7 175 
198 175 176 
199 176 177 
200 177 178 
201 178 179 
202 179 180 
203 180 181 
204 181 182 
205 182 183 
206 183 184 
207 184 185 
208 185 186 
209 186 187 
210 187 188 
211 188 189 
212 189 190 
213 190 191 
214 191 192 
215 192 193 
216 193 15 
1 44 1 20
217 8 194 
218 194 195 
219 195 196 
220 196 197 
221 197 198 
222 198 199 
223 199 200 
224 200 201 
225 201 202 
226 202 203 
227 203 204 
228 204 205 
229 205 206 
230 206 207 
231 207 208 
232 208 209 
233 209 210 
234 210 211 
235 211 212 
236 212 16 
2 1 2 32
237 19 18 214 
238 30 29 213 
239 6 7 213 
240 2 3 214 
241 4 38 1 
242 18 2 214 
243 3 19 214 
244 21 38 4 
245 32 5 8 
246 5 32 27 
247 29 6 213 
248 7 30 213 
249 38 21 37 
250 32 33 27 
251 17 4 1 
252 20 4 17 
253 5 31 8 
254 31 5 28 
255 18 20 17 
256 19 20 18 
257 21 22 37 
258 22 23 36 
259 22 36 37 
260 23 24 35 
261 23 35 36 
262 24 25 35 
263 34 25 26 
264 25 34 35 
265 33 26 27 
266 33 34 26 
267 30 28 29 
268 30 31 28 
2 21 3 60
269 1 17 215 61 
270 61 215 216 62 
271 62 216 217 63 
272 63 217 218 64 
273 64 218 219 65 
274 65 219 220 66 
275 66 220 221 67 
276 67 221 222 68 
277 68 222 223 69 
278 69 223 224 70 
279 70 224 225 71 
280 71 225 226 72 
281 72 226 227 73 
282 73 227 228 74 
283 74 228 229 75 
284 75 229 230 76 
285 76 230 231 77 
286 77 231 232 78 
287 78 232 233 79 
288 79 233 39 9 
289 17 18 234 215 
290 215 234 235 216 
291 216 235 236 217 
292 217 236 237 218 
293 218 237 238 219 
294 219 238 239 220 
295 220 239 240 221 
296 221 240 241 222 
297 222 241 242 223 
298 223 242 243 224 
299 224 243 244 225 
300 225 244 245 226 
301 226 245 246 227 
302 227 246 247 228 
303 228 247 248 229 
304 229 248 249 230 
305 230 249 250 231 
306 231 250 251 232 
307 232 251 252 233 
308 233 252 40 39 
309 18 2 80 234 
310 234 80 81 235 
311 235 81 82 236 
312 236 82 83 237 
313 237 83 84 238 
314 238 84 85 239 
315 239 85 86 240 
316 240 86 87 241 
317 241 87 88 242 
318 242 88 89 243 
319 243 89 90 244 
320 244 90 91 245 
321 245 91 92 246 
322 246 92 93 247 
323 247 93 94 248 
324 248 94 95 249 
325 249 95 96 250 
326 250 96 97 251 
327 251 97 98 252 
328 252 98 10 40 
2 25 3 20
329 2 3 99 80 
330 80 99 100 81 
331 81 100 101 82 
332 82 101 102 83 
333 83 102 103 84 
334 84 103 104 85 
335 85 104 105 86 
336 86 105 106 87 
337 87 106 107 88 
338 88 107 108 89 
339 89 108 109 90 
340 90 109 110 91 
341 91 110 111 92 
342 92 111 112 93 
343 93 112 113 94 
344 94 113 114 95 
345 95 114 115 96 
346 96 115 116 97 
347 97 116 117 98 
348 98 117 11 10 
2 29 3 60
349 3 19 253 99 
350 99 253 254 100 
351 100 254 255 101 
352 101 255 256 102 
353 102 256 257 103 
354 103 257 258 104 
355 104 258 259 105 
356 105 259 260 106 
357 106 260 261 107 
358 107 261 262 108 
359 108 262 263 109 
360 109 263 264 110 
361 110 264 265 111 
362 111 265 266 112 
363 112 266 267 113 
364 113 267 268 114 
365 114 268 269 115 
366 115 269 270 116 
367 116 270 271 117 
368 117 271 41 11 
369 19 20 272 253 
370 253 272 273 254 
371 254 273 274 255 
372 255 274 275 256 
373 256 275 276 257 
374 257 276 277 258 
375 258 277 278 259 
376 259 278 279 260 
377 260 279 280 261 
378 261 280 281 262 
379 262 281 282 263 
380 263 282 283 264 
381 264 283 284 265 
382 265 284 285 266 
383 266 285 286 267 
384 267 286 287 268 
385 268 287 288 269 
386 269 288 289 270 
387 270 289 290 271 
388 271 290 42 41 
389 20 4 118 272 
390 272 118 119 273 
391 273 119 120 274 
392 274 120 121 275 
393 275 121 122 276 
394 276 122 123 277 
395 277 123 124 278 
396 278 124 125 279 
397 279 125 126 280 
398 280 126 127 281 
399 281 127 128 282 
400 282 128 129 283 
401 283 129 130 284 
402 284 130 131 285 
403 285 131 132 286 
404 286 132 133 287 
405 287 133 134 288 
406 288 134 135 289 
407 289 135 136 290 
408 290 136 12 42 
2 33 3 160
409 4 21 291 118 
410 118 291 292 119 
411 119 292 293 120 
412 120 293 294 121 
413 121 294 295 122 
414 122 295 296 123 
415 123 296 297 124 
416 124 297 298 125 
417 125 298 299 126 
418 126 299 300 127 
419 127 300 301 128 
420 128 301 302 129 
421 129 302 303 130 
422 130 303 304 131 
423 131 304 305 132 
424 132 305 306 133 
425 133 306 307 134 
426 134 307 308 135 
427 135 308 309 136 
428 136 309 43 12 
429 21 22 310 291 
430 291 310 311 292 
431 292 311 312 293 
432 293 312 313 294 
433 294 313 314 295 
434 295 314 315 296 
435 296 315 316 297 
436 297 316 317 298 
437 298 317 318 299 
438 299 318 319 300 
439 300 319 320 301 
440 301 320 321 302 
441 302 321 322 303 
442 303 322 323 304 
443 304 323 324 305 
444 305 324 325 306 
445 306 325 326 307 
446 307 326 327 308 
447 308 327 328 309 
448 309 328 44 43 
449 22 23 329 310 
450 310 329 330 311 
451 311 330 331 312 
452 312 331 332 313 
453 313 332 333 314 
454 314 333 334 315 
455 315 334 335 316 
456 316 335 336 317 
457 317 336 337 318 
458 318 337 338 319 
459 319 338 339 320 
460 320 339 340 321 
461 321 340 341 322 
462 322 341 342 323 
463 323 342 343 324 
464 324 343 344 325 
465 325 344 345 326 
466 326 345 346 327 
467 327 346 347 328 
468 328 347 45 44 
469 23 24 348 329 
470 329 348 349 330 
471 330 349 350 331 
472 331 350 351 332 
473 332 351 352 333 
474 333 352 353 334 
475 334 353 354 335 
476 335 354 355 336 
477 336 355 356 337 
478 337 356 357 338 
479 338 357 358 339 
480 339 358 359 340 
481 340 359 360 341 
482 341 360 361 342 
483 342 361 362 343 
484 343 362 363 344 
485 344 363 364 345 
486 345 364 365 346 
487 346 365 366 347 
488 347 366 46 45 
489 24 25 367 348 
490 348 367 368 349 
491 349 368 369 350 
492 350 369 370 351 
493 351 370 371 352 
494 352 371 372 353 
495 353 372 373 354 
496 354 373 374 355 
497 355 374 375 356 
498 356 375 376 357 
499 357 376 377 358 
500 358 377 378 359 
501 359 378 379 360 
502 360 379 380 361 
503 361 380 381 362 
504 362 381 382 363 
505 363 382 383 364 
506 364 383 384 365 
507 365 384 385 366 
508 366 385 47 46 
509 25 26 386 367 
510 367 386 387 368 
511 368 387 388 369 
512 369 388 389 370 
513 370 389 390 371 
514 371 390 391 372 
515 372 391 392 373 
516 373 392 393 374 
517 374 393 394 375 
518 375 394 395 376 
519 376 395 396 377 
520 377 396 397 378 
521 378 397 398 379 
522 379 398 399 380 
523 380 399 400 381 
524 381 400 401 382 
525 382 401 402 383 
526 383 402 403 384 
527 384 403 404 385 
528 385 404 48 47 
529 26 27 405 386 
530 386 405 406 387 
531 387 406 407 388 
532 388 407 408 389 
533 389 408 409 390 
534 390 409 410 391 
535 391 410 411 392 
536 392 411 412 393 
537 393 412 413 394 
538 394 413 414 395 
539 395 414 415 396 
540 396 415 416 397 
541 397 416 417 398 
542 398 417 418 399 
543 399 418 419 400 
544 400 419 420 401 
545 401 420 421 402 
546 402 421 422 403 
547 403 422 423 404 
548 404 423 49 48 
549 27 5 137 405 
550 405 137 138 406 
551 406 138 139 407 
552 407 139 140 408 
553 408 140 141 409 
554 409 141 142 410 
555 410 142 143 411 
556 411 143 144 412 
557 412 144 145 413 
558 413 145 146 414 
559 414 146 147 415 
560 415 147 148 416 
561 416 148 149 417 
562 417 149 150 418 
563 418 150 151 419 
564 419 151 152 420 
565 420 152 153 421 
566 421 153 154 422 
567 422 154 155 423 
568 423 155 13 49 
2 37 3 60
569 5 28 424 137 
570 137 424 425 138 
571 138 425 426 139 
572 139 426 427 140 
573 140 427 428 141 
574 141 428 429 142 
575 142 429 430 143 
576 143 430 431 144 
577 144 431 432 145 
578 145 432 433 146 
579 146 433 434 147 
580 147 434 435 148 
581 148 435 436 149 
582 149 436 437 150 
583 150 437 438 151 
584 151 438 439 152 
585 152 439 440 153 
586 153 440 441 154 
587 154 441 442 155 
588 155 442 50 13 
589 28 29 443 424 
590 424 443 444 425 
591 425 444 445 426 
592 426 445 446 427 
593 427 446 447 428 
594 428 447 448 429 
595 429 448 449 430 
596 430 449 450 431 
597 431 450 451 432 
598 432 451 452 433 
599 433 452 453 434 
600 434 453 454 435 
601 435 454 455 436 
602 436 455 456 437 
603 437 456 457 438 
604 438 457 458 439 
605 439 458 459 440 
606 440 459 460 441 
607 441 460 461 442 
608 442 461 51 50 
609 29 6 156 443 
610 443 156 157 444 
611 444 157 158 445 
612 445 158 159 446 
613 446 159 160 447 
614 447 160 161 448 
615 448 161 162 449 
616 449 162 163 450 
617 450 163 164 451 
618 451 164 165 452 
619 452 165 166 453 
620 453 166 167 454 
621 454 167 168 455 
622 455 168 169 456 
623 456 169 170 457 
624 457 170 171 458 
625 458 171 172 459 
626 459 172 173 460 
627 460 173 174 461 
628 461 174 14 51 
2 41 3 20
629 6 7 175 156 
630 156 175 176 157 
631 157 176 177 158 
632 158 177 178 159 
633 159 178 179 160 
634 160 179 180 161 
635 161 180 181 162 
636 162 181 182 163 
637 163 182 183 164 
638 164 183 184 165 
639 165 184 185 166 
640 166 185 186 167 
641 167 186 187 168 
642 168 187 188 169 
643 169 188 189 170 
644 170 189 190 171 
645 171 190 191 172 
646 172 191 192 173 
647 173 192 193 174 
648 174 193 15 14 
2 45 3 60
649 7 30 462 175 
650 175 462 463 176 
651 176 463 464 177 
652 177 464 465 178 
653 178 465 466 179 
654 179 466 467 180 
655 180 467 468 181 
656 181 468 469 182 
657 182 469 470 183 
658 183 470 471 184 
659 184 471 472 185 
660 185 472 473 186 
661 186 473 474 187 
662 187 474 475 188 
663 188 475 476 189 
664 189 476 477 190 
665 190 477 478 191 
666 191 478 479 192 
667 192 479 480 193 
668 193 480 52 15 
669 30 31 481 462 
670 462 481 482 463 
671 463 482 483 464 
672 464 483 484 465 
673 465 484 485 466 
674 466 485 486 467 
675 467 486 487 468 
676 468 487 488 469 
677 469 488 489 470 
678 470 489 490 471 
679 471 490 491 472 
680 472 491 492 473 
681 473 492 493 474 
682 474 493 494 475 
683 475 494 495 476 
684 476 495 496 477 
685 477 496 497 478 
686 478 497 498 479 
687 479 498 499 480 
688 480 499 53 52 
689 31 8 194 481 
690 481 194 195 482 
691 482 195 196 483 
692 483 196 197 484 
693 484 197 198 485 
694 485 198 199 486 
695 486 199 200 487 
696 487 200 201 488 
697 488 201 202 489 
698 489 202 203 490 
699 490 203 204 491 
700 491 204 205 492 
701 492 205 206 493 
702 493 206 207 494 
703 494 207 208 495 
704 495 208 209 496 
705 496 209 210 497 
706 497 210 211 498 
707 498 211 212 499 
708 499 212 16 53 
2 49 3 160
709 8 32 500 194 
710 194 500 501 195 
711 195 501 502 196 
712 196 502 503 197 
713 197 503 504 198 
714 198 504 505 199 
715 199 505 506 200 
716 200 506 507 201 
717 201 507 508 202 
718 202 508 509 203 
719 203 509 510 204 
720 204 510 511 205 
721 205 511 512 206 
722 206 512 513 207 
723 207 513 514 208 
724 208 514 515 209 
725 209 515 516 210 
726 210 516 517 211 
727 211 517 518 212 
728 212 518 54 16 
729 32 33 519 500 
730 500 519 520 501 
731 501 520 521 502 
732 502 521 522 503 
733 503 522 523 504 
734 504 523 524 505 
735 505 524 525 506 
736 506 525 526 507 
737 507 526 527 508 
738 508 527 528 509 
739 509 528 529 510 
740 510 529 530 511 
741 511 530 531 512 
742 512 531 532 513 
743 513 532 533 514 
744 514 533 534 515 
745 515 534 535 516 
746 516 535 536 517 
747 517 536 537 518 
748 518 537 55 54 
749 33 34 538 519 
750 519 538 539 520 
751 520 539 540 521 
752 521 540 541 522 
753 522 541 542 523 
754 523 542 543 524 
755 524 543 544 525 
756 525 544 545 526 
757 526 545 546 527 
758 527 546 547 528 
759 528 547 548 529 
760 529 548 549 530 
761 530 549 550 531 
762 531 550 551 532 
763 532 551 552 533 
764 533 552 553 534 
765 534 553 554 535 
766 535 554 555 536 
767 536 555 556 537 
768 537 556 56 55 
769 34 35 557 538 
770 538 557 558 539 
771 539 558 559 540 
772 540 559 560 541 
773 541 560 561 542 
774 542 561 562 543 
775 543 562 563 544 
776 544 563 564 545 
777 545 564 565 546 
778 546 565 566 547 
779 547 566 567 548 
780 548 567 568 549 
781 549 568 569 550 
782 550 569 570 551 
783 551 570 571 552 
784 552 571 572 553 
785 553 572 573 554 
786 554 573 574 555 
787 555 574 575 556 
788 556 575 57 56 
789 35 36 576 557 
790 557 576 577 558 
791 558 577 578 559 
792 559 578 579 560 
793 560 579 580 561 
794 561 580 581 562 
795 562 581 582 563 
796 563 582 583 564 
797 564 583 584 565 
798 565 584 585 566 
799 566 585 586 567 
800 567 586 587 568 
801 568 587 588 569 
802 569 588 589 570 
803 570 589 590 571 
804 571 590 591 572 
805 572 591 592 573 
806 573 592 593 574 
807 574 593 594 575 
808 575 594 58 57 
809 36 37 595 576 
810 576 595 596 577 
811 577 596 597 578 
812 578 597 598 579 
813 579 598 599 580 
814 580 599 600 581 
815 581 600 601 582 
816 582 601 602 583 
817 583 602 603 584 
818 584 603 604 585 
819 585 604 605 586 
820 586 605 606 587 
821 587 606 607 588 
822 588 607 608 589 
823 589 608 609 590 
824 590 609 610 591 
825 591 610 611 592 
826 592 611 612 593 
827 593 612 613 594 
828 594 613 59 58 
829 37 38 614 595 
830 595 614 615 596 
831 596 615 616 597 
832 597 616 617 598 
833 598 617 618 599 
834 599 618 619 600 
835 600 619 620 601 
836 601 620 621 602 
837 602 621 622 603 
838 603 622 623 604 
839 604 623 624 605 
840 605 624 625 606 
841 606 625 626 607 
842 607 626 627 608 
843 608 627 628 609 
844 609 628 629 610 
845 610 629 630 611 
846 611 630 631 612 
847 612 631 632 613 
848 613 632 60 59 
849 38 1 61 614 
850 614 61 62 615 
851 615 62 63 616 
852 616 63 64 617 
853 617 64 65 618 
854 618 65 66 619 
855 619 66 67 620 
856 620 67 68 621 
857 621 68 69 622 
858 622 69 70 623 
859 623 70 71 624 
860 624 71 72 625 
861 625 72 73 626 
862 626 73 74 627 
863 627 74 75 628 
864 628 75 76 629 
865 629 76 77 630 
866 630 77 78 631 
867 631 78 79 632 
868 632 79 9 60 
2 50 2 32
869 41 40 634 
870 52 51 633 
871 14 15 633 
872 10 11 634 
873 12 60 9 
874 40 10 634 
875 11 41 634 
876 43 60 12 
877 54 13 16 
878 13 54 49 
879 51 14 633 
880 15 52 633 
881 60 43 59 
882 54 55 49 
883 39 12 9 
884 42 12 39 
885 13 53 16 
886 53 13 50 
887 40 42 39 
888 41 42 40 
889 43 44 59 
890 44 45 58 
891 44 58 59 
892 45 46 57 
893 45 57 58 
894 46 47 57 
895 56 47 48 
896 47 56 57 
897 55 48 49 
898 55 56 48 
899 52 50 51 
900 52 53 50 
3 1 6 640
901 18 19 214 234 253 654 
902 234 253 654 235 254 655 
903 235 254 655 236 255 656 
904 236 255 656 237 256 657 
905 237 256 657 238 257 658 
906 238 257 658 239 258 659 
907 239 258 659 240 259 660 
908 240 259 660 241 260 661 
909 241 260 661 242 261 662 
910 242 261 662 243 262 663 
911 243 262 663 244 263 664 
912 244 263 664 245 264 665 
913 245 264 665 246 265 666 
914 246 265 666 247 266 667 
915 247 266 667 248 267 668 
916 248 267 668 249 268 669 
917 249 268 669 250 269 670 
918 250 269 670 251 270 671 
919 251 270 671 252 271 672 
920 252 271 672 40 41 634 
921 29 30 213 443 462 635 
922 443 462 635 444 463 636 
923 444 463 636 445 464 637 
924 445 464 637 446 465 638 
925 446 465 638 447 466 639 
926 447 466 639 448 467 640 
927 448 467 640 449 468 641 
928 449 468 641 450 469 642 
929 450 469 642 451 470 643 
930 451 470 643 452 471 644 
931 452 471 644 453 472 645 
932 453 472 645 454 473 646 
933 454 473 646 455 474 647 
934 455 474 647 456 475 648 
935 456 475 648 457 476 649 
936 457 476 649 458 477 650 
937 458 477 650 459 478 651 
938 459 478 651 460 479 652 
939 460 479 652 461 480 653 
940 461 480 653 51 52 633 
941 7 6 213 175 156 635 
942 175 156 635 176 157 636 
943 176 157 636 177 158 637 
944 177 158 637 178 159 638 
945 178 159 638 179 160 639 
946 179 160 639 180 161 640 
947 180 161 640 181 162 641 
948 181 162 641 182 163 642 
949 182 163 642 183 164 643 
950 183 164 643 184 165 644 
951 184 165 644 185 166 645 
952 185 166 645 186 167 646 
953 186 167 646 187 168 647 
954 187 168 647 188 169 648 
955 188 169 648 189 170 649 
956 189 170 649 190 171 650 
957 190 171 650 191 172 651 
958 191 172 651 192 173 652 
959 192 173 652 193 174 653 
960 193 174 653 15 14 633 
961 3 2 214 99 80 654 
962 99 80 654 100 81 655 
963 100 81 655 101 82 656 
964 101 82 656 102 83 657 
965 102 83 657 103 84 658 
966 103 84 658 104 85 659 
967 104 85 659 105 86 660 
968 105 86 660 106 87 661 
969 106 87 661 107 88 662 
970 107 88 662 108 89 663 
971 108 89 663 109 90 664 
972 109 90 664 110 91 665 
973 110 91 665 111 92 666 
974 111 92 666 112 93 667 
975 112 93 667 113 94 668 
976 113 94 668 114 95 669 
977 114 95 669 115 96 670 
978 115 96 670 116 97 671 
979 116 97 671 117 98 672 
980 117 98 672 11 10 634 
981 38 4 1 614 118 61 
982 614 118 61 615 119 62 
983 615 119 62 616 120 63 
984 616 120 63 617 121 64 
985 617 121 64 618 122 65 
986 618 122 65 619 123 66 
987 619 123 66 620 124 67 
988 620 124 67 621 125 68 
989 621 125 68 622 126 69 
990 622 126 69 623 127 70 
991 623 127 70 624 128 71 
992 624 128 71 625 129 72 
993 625 129 72 626 130 73 
994 626 130 73 627 131 74 
995 627 131 74 628 132 75 
996 628 132 75 629 133 76 
997 629 133 76 630 134 77 
998 630 134 77 631 135 78 
999 631 135 78 632 136 79 
1000 632 136 79 60 12 9 
1001 2 18 214 80 234 654 
1002 80 234 654 81 235 655 
1003 81 235 655 82 236 656 
1004 82 236 656 83 237 657 
1005 83 237 657 84 238 658 
1006 84 238 658 85 239 659 
1007 85 239 659 86 240 660 
1008 86 240 660 87 241 661 
1009 87 241 661 88 242 662 
1010 88 242 662 89 243 663 
1011 89 243 663 90 244 664 
1012 90 244 664 91 245 665 
1013 91 245 665 92 246 666 
1014 92 246 666 93 247 667 
1015 93 247 667 94 248 668 
1016 94 248 668 95 249 669 
1017 95 249 669 96 250 670 
1018 96 250 670 97 251 671 
1019 97 251 671 98 252 672 
1020 98 252 672 10 40 634 
1021 19 3 214 253 99 654 
1022 253 99 654 254 100 655 
1023 254 100 655 255 101 656 
1024 255 101 656 256 102 657 
1025 256 102 657 257 103 658 
1026 257 103 658 258 104 659 
1027 258 104 659 259 105 660 
1028 259 105 660 260 106 661 
1029 260 106 661 261 107 662 
1030 261 107 662 262 108 663 
1031 262 108 663 263 109 664 
1032 263 109 664 264 110 665 
1033 264 110 665 265 111 666 
1034 265 111 666 266 112 667 
1035 266 112 667 267 113 668 
1036 267 113 668 268 114 669 
1037 268 114 669 269 115 670 
1038 269 115 670 270 116 671 
1039 270 116 671 271 117 672 
1040 271 117 672 41 11 634 
1041 38 21 4 614 291 118 
1042 614 291 118 615 292 119 
1043 615 292 119 616 293 120 
1044 616 293 120 617 294 121 
1045 617 294 121 618 295 122 
1046 618 295 122 619 296 123 
1047 619 296 123 620 297 124 
1048 620 297 124 621 298 125 
1049 621 298 125 622 299 126 
1050 622 299 126 623 300 127 
1051 623 300 127 624 301 128 
1052 624 301 128 625 302 129 
1053 625 302 129 626 303 130 
1054 626 303 130 627 304 131 
1055 627 304 131 628 305 132 
1056 628 305 132 629 306 133 
1057 629 306 133 630 307 134 
1058 630 307 134 631 308 135 
1059 631 308 135 632 309 136 
1060 632 309 136 60 43 12 
1061 5 32 8 137 500 194 
1062 137 500 194 138 501 195 
1063 138 501 195 139 502 196 
1064 139 502 196 140 503 197 
1065 140 503 197 141 504 198 
1066 141 504 198 142 505 199 
1067 142 505 199 143 506 200 
1068 143 506 200 144 507 201 
1069 144 507 201 145 508 202 
1070 145 508 202 146 509 203 
1071 146 509 203 147 510 204 
1072 147 510 204 148 511 205 
1073 148 511 205 149 512 206 
1074 149 512 206 150 513 207 
1075 150 513 207 151 514 208 
1076 151 514 208 152 515 209 
1077 152 515 209 153 516 210 
1078 153 516 210 154 517 211 
1079 154 517 211 155 518 212 
1080 155 518 212 13 54 16 
1081 32 5 27 500 137 405 
1082 500 137 405 501 138 406 
1083 501 138 406 502 139 407 
1084 502 139 407 503 140 408 
1085 503 140 408 504 141 409 
1086 504 141 409 505 142 410 
1087 505 142 410 506 143 411 
1088 506 143 411 507 144 412 
1089 507 144 412 508 145 413 
1090 508 145 413 509 146 414 
1091 509 146 414 510 147 415 
1092 510 147 415 511 148 416 
1093 511 148 416 512 149 417 
1094 512 149 417 513 150 418 
1095 513 150 418 514 151 419 
1096 514 151 419 515 152 420 
1097 515 152 420 516 153 421 
1098 516 153 421 517 154 422 
1099 517 154 422 518 155 423 
1100 518 155 423 54 13 49 
1101 6 29 213 156 443 635 
1102 156 443 635 157 444 636 
1103 157 444 636 158 445 637 
1104 158 445 637 159 446 638 
1105 159 446 638 160 447 639 
1106 160 447 639 161 448 640 
1107 161 448 640 162 449 641 
1108 162 449 641 163 450 642 
1109 163 450 642 164 451 643 
1110 164 451 643 165 452 644 
1111 165 452 644 166 453 645 
1112 166 453 645 167 454 646 
1113 167 454 646 168 455 647 
1114 168 455 647 169 456 648 
1115 169 456 648 170 457 649 
1116 170 457 649 171 458 650 
1117 171 458 650 172 459 651 
1118 172 459 651 173 460 652 
1119 173 460 652 174 461 653 
1120 174 461 653 14 51 633 
1121 30 7 213 462 175 635 
1122 462 175 635 463 176 636 
1123 463 176 636 464 177 637 
1124 464 177 637 465 178 638 
1125 465 178 638 466 179 639 
1126 466 179 639 467 180 640 
1127 467 180 640 468 181 641 
1128 468 181 641 469 182 642 
1129 469 182 642 470 183 643 
1130 470 183 643 471 184 644 
1131 471 184 644 472 185 645 
1132 472 185 645 473 186 646 
1133 473 186 646 474 187 647 
1134 474 187 647 475 188 648 
1135 475 188 648 476 189 649 
1136 476 189 649 477 190 650 
1137 477 190 650 478 191 651 
1138 478 191 651 479 192 652 
1139 479 192 652 480 193 653 
1140 480 193 653 52 15 633 
1141 21 38 37 291 614 595 
1142 291 614 595 292 615 596 
1143 292 615 596 293 616 597 
1144 293 616 597 294 617 598 
1145 294 617 598 295 618 599 
1146 295 618 599 296 619 600 
1147 296 619 600 297 620 601 
1148 297 620 601 298 621 602 
1149 298 621 602 299 622 603 
1150 299 622 603 300 623 604 
1151 300 623 604 301 624 605 
1152 301 624 605 302 625 606 
1153 302 625 606 303 626 607 
1154 303 626 607 304 627 608 
1155 304 627 608 305 628 609 
1156 305 628 609 306 629 610 
1157 306 629 610 307 630 611 
1158 307 630 611 308 631 612 
1159 308 631 612 309 632 613 
1160 309 632 613 43 60 59 
1161 33 32 27 519 500 405 
1162 519 500 405 520 501 406 
1163 520 501 406 521 502 407 
1164 521 502 407 522 503 408 
1165 522 503 408 523 504 409 
1166 523 504 409 524 505 410 
1167 524 505 410 525 506 411 
1168 525 506 411 526 507 412 
1169 526 507 412 527 508 413 
1170 527 508 413 528 509 414 
1171 528 509 414 529 510 415 
1172 529 510 415 530 511 416 
1173 530 511 416 531 512 417 
1174 531 512 417 532 513 418 
1175 532 513 418 533 514 419 
1176 533 514 419 534 515 420 
1177 534 515 420 535 516 421 
1178 535 516 421 536 517 422 
1179 536 517 422 537 518 423 
1180 537 518 423 55 54 49 
1181 4 17 1 118 215 61 
1182 118 215 61 119 216 62 
1183 119 216 62 120 217 63 
1184 120 217 63 121 218 64 
1185 121 218 64 122 219 65 
1186 122 219 65 123 220 66 
1187 123 220 66 124 221 67 
1188 124 221 67 125 222 68 
1189 125 222 68 126 223 69 
1190 126 223 69 127 224 70 
1191 127 224 70 128 225 71 
1192 128 225 71 129 226 72 
1193 129 226 72 130 227 73 
1194 130 227 73 131 228 74 
1195 131 228 74 132 229 75 
1196 132 229 75 133 230 76 
1197 133 230 76 134 231 77 
1198 134 231 77 135 232 78 
1199 135 232 78 136 233 79 
1200 136 233 79 12 39 9 
1201 4 20 17 118 272 215 
1202 118 272 215 119 273 216 
1203 119 273 216 120 274 217 
1204 120 274 217 121 275 218 
1205 121 275 218 122 276 219 
1206 122 276 219 123 277 220 
1207 123 277 220 124 278 221 
1208 124 278 221 125 279 222 
1209 125 279 222 126 280 223 
1210 126 280 223 127 281 224 
1211 127 281 224 128 282 225 
1212 128 282 225 129 283 226 
1213 129 283 226 130 284 227 
1214 130 284 227 131 285 228 
1215 131 285 228 132 286 229 
1216 132 286 229 133 287 230 
1217 133 287 230 134 288 231 
1218 134 288 231 135 289 232 
1219 135 289 232 136 290 233 
1220 136 290 233 12 42 39 
1221 31 5 8 481 137 194 
1222 481 137 194 482 138 195 
1223 482 138 195 483 139 196 
1224 483 139 196 484 140 197 
1225 484 140 197 485 141 198 
1226 485 141 198 486 142 199 
1227 486 142 199 487 143 200 
1228 487 143 200 488 144 201 
1229 488 144 201 489 145 202 
1230 489 145 202 490 146 203 
1231 490 146 203 491 147 204 
1232 491 147 204 492 148 205 
1233 492 148 205 493 149 206 
1234 493 149 206 494 150 207 
1235 494 150 207 495 151 208 
1236 495 151 208 496 152 209 
1237 496 152 209 497 153 210 
1238 497 153 210 498 154 211 
1239 498 154 211 499 155 212 
1240 499 155 212 53 13 16 
1241 5 31 28 137 481 424 
1242 137 481 424 138 482 425 
1243 138 482 425 139 483 426 
1244 139 483 426 140 484 427 
1245 140 484 427 141 485 428 
1246 141 485 428 142 486 429 
1247 142 486 429 143 487 430 
1248 143 487 430 144 488 431 
1249 144 488 431 145 489 432 
1250 145 489 432 146 490 433 
1251 146 490 433 147 491 434 
1252 147 491 434 148 492 435 
1253 148 492 435 149 493 436 
1254 149 493 436 150 494 437 
1255 150 494 437 151 495 438 
1256 151 495 438 152 496 439 
1257 152 496 439 153 497 440 
1258 153 497 440 154 498 441 
1259 154 498 441 155 499 442 
1260 155 499 442 13 53 50 
1261 20 18 17 272 234 215 
1262 272 234 215 273 235 216 
1263 273 235 216 274 236 217 
1264 274 236 217 275 237 218 
1265 275 237 218 276 238 219 
1266 276 238 219 277 239 220 
1267 277 239 220 278 240 221 
1268 278 240 221 279 241 222 
1269 279 241 222 280 242 223 
1270 280 242 223 281 243 224 
1271 281 243 224 282 244 225 
1272 282 244 225 283 245 226 
1273 283 245 226 284 246 227 
1274 284 246 227 285 247 228 
1275 285 247 228 286 248 229 
1276 286 248 229 287 249 230 
1277 287 249 230 288 250 231 
1278 288 250 231 289 251 232 
1279 289 251 232 290 252 233 
1280 290 252 233 42 40 39 
1281 20 19 18 272 253 234 
1282 272 253 234 273 254 235 
1283 273 254 235 274 255 236 
1284 274 255 236 275 256 237 
1285 275 256 237 276 257 238 
1286 276 257 238 277 258 239 
1287 277 258 239 278 259 240 
1288 278 259 240 279 260 241 
1289 279 260 241 280 261 242 
1290 280 261 242 281 262 243 
1291 281 262 243 282 263 244 
1292 282 263 244 283 264 245 
1293 283 264 245 284 265 246 
1294 284 265 246 285 266 247 
1295 285 266 247 286 267 248 
1296 286 267 248 287 268 249 
1297 287 268 249 288 269 250 
1298 288 269 250 289 270 251 
1299 289 270 251 290 271 252 
1300 290 271 252 42 41 40 
1301 22 21 37 310 291 595 
1302 310 291 595 311 292 596 
1303 311 292 596 312 293 597 
1304 312 293 597 313 294 598 
1305 313 294 598 314 295 599 
1306 314 295 599 315 296 600 
1307 315 296 600 316 297 601 
1308 316 297 601 317 298 602 
1309 317 298 602 318 299 603 
1310 318 299 603 319 300 604 
1311 319 300 604 320 301 605 
1312 320 301 605 321 302 606 
1313 321 302 606 322 303 607 
1314 322 303 607 323 304 608 
1315 323 304 608 324 305 609 
1316 324 305 609 325 306 610 
1317 325 306 610 326 307 611 
1318 326 307 611 327 308 612 
1319 327 308 612 328 309 613 
1320 328 309 613 44 43 59 
1321 23 22 36 329 310 576 
1322 329 310 576 330 311 577 
1323 330 311 577 331 312 578 
1324 331 312 578 332 313 579 
1325 332 313 579 333 314 580 
1326 333 314 580 334 315 581 
1327 334 315 581 335 316 582 
1328 335 316 582 336 317 583 
1329 336 317 583 337 318 584 
1330 337 318 584 338 319 585 
1331 338 319 585 339 320 586 
1332 339 320 586 340 321 587 
1333 340 321 587 341 322 588 
1334 341 322 588 342 323 589 
1335 342 323 589 343 324 590 
1336 343 324 590 344 325 591 
1337 344 325 591 345 326 592 
1338 345 326 592 346 327 593 
1339 346 327 593 347 328 594 
1340 347 328 594 45 44 58 
1341 36 22 37 576 310 595 
1342 576 310 595 577 311 596 
1343 577 311 596 578 312 597 
1344 578 312 597 579 313 598 
1345 579 313 598 580 314 599 
1346 580 314 599 581 315 600 
1347 581 315 600 582 316 601 
1348 582 316 601 583 317 602 
1349 583 317 602 584 318 603 
1350 584 318 603 585 319 604 
1351 585 319 604 586 320 605 
1352 586 320 605 587 321 606 
1353 587 321 606 588 322 607 
1354 588 322 607 589 323 608 
1355 589 323 608 590 324 609 
1356 590 324 609 591 325 610 
1357 591 325 610 592 326 611 
1358 592 326 611 593 327 612 
1359 593 327 612 594 328 613 
1360 594 328 613 58 44 59 
1361 24 23 35 348 329 557 
1362 348 329 557 349 330 558 
1363 349 330 558 350 331 559 
1364 350 331 559 351 332 560 
1365 351 332 560 352 333 561 
1366 352 333 561 353 334 562 
1367 353 334 562 354 335 563 
1368 354 335 563 355 336 564 
1369 355 336 564 356 337 565 
1370 356 337 565 357 338 566 
1371 357 338 566 358 339 567 
1372 358 339 567 359 340 568 
1373 359 340 568 360 341 569 
1374 360 341 569 361 342 570 
1375 361 342 570 362 343 571 
1376 362 343 571 363 344 572 
1377 363 344 572 364 345 573 
1378 364 345 573 365 346 574 
1379 365 346 574 366 347 575 
1380 366 347 575 46 45 57 
1381 35 23 36 557 329 576 
1382 557 329 576 558 330 577 
1383 558 330 577 559 331 578 
1384 559 331 578 560 332 579 
1385 560 332 579 561 333 580 
1386 561 333 580 562 334 581 
1387 562 334 581 563 335 582 
1388 563 335 582 564 336 583 
1389 564 336 583 565 337 584 
1390 565 337 584 566 338 585 
1391 566 338 585 567 339 586 
1392 567 339 586 568 340 587 
1393 568 340 587 569 341 588 
1394 569 341 588 570 342 589 
1395 570 342 589 571 343 590 
1396 571 343 590 572 344 591 
1397 572 344 591 573 345 592 
1398 573 345 592 574 346 593 
1399 574 346 593 575 347 594 
1400 575 347 594 57 45 58 
1401 25 24 35 367 348 557 
1402 367 348 557 368 349 558 
1403 368 349 558 369 350 559 
1404 369 350 559 370 351 560 
1405 370 351 560 371 352 561 
1406 371 352 561 372 353 562 
1407 372 353 562 373 354 563 
1408 373 354 563 374 355 564 
1409 374 355 564 375 356 565 
1410 375 356 565 376 357 566 
1411 376 357 566 377 358 567 
1412 377 358 567 378 359 568 
1413 378 359 568 379 360 569 
1414 379 360 569 380 361 570 
1415 380 361 570 381 362 571 
1416 381 362 571 382 363 572 
1417 382 363 572 383 364 573 
1418 383 364 573 384 365 574 
1419 384 365 574 385 366 575 
1420 385 366 575 47 46 57 
1421 25 34 26 367 538 386 
1422 367 538 386 368 539 387 
1423 368 539 387 369 540 388 
1424 369 540 388 370 541 389 
1425 370 541 389 371 542 390 
1426 371 542 390 372 543 391 
1427 372 543 391 373 544 392 
1428 373 544 392 374 545 393 
1429 374 545 393 375 546 394 
1430 375 546 394 376 547 395 
1431 376 547 395 377 548 396 
1432 377 548 396 378 549 397 
1433 378 549 397 379 550 398 
1434 379 550 398 380 551 399 
1435 380 551 399 381 552 400 
1436 381 552 400 382 553 401 
1437 382 553 401 383 554 402 
1438 383 554 402 384 555 403 
1439 384 555 403 385 556 404 
1440 385 556 404 47 56 48 
1441 34 25 35 538 367 557 
1442 538 367 557 539 368 558 
1443 539 368 558 540 369 559 
1444 540 369 559 541 370 560 
1445 541 370 560 542 371 561 
1446 542 371 561 543 372 562 
1447 543 372 562 544 373 563 
1448 544 373 563 545 374 564 
1449 545 374 564 546 375 565 
1450 546 375 565 547 376 566 
1451 547 376 566 548 377 567 
1452 548 377 567 549 378 568 
1453 549 378 568 550 379 569 
1454 550 379 569 551 380 570 
1455 551 380 570 552 381 571 
1456 552 381 571 553 382 572 
1457 553 382 572 554 383 573 
1458 554 383 573 555 384 574 
1459 555 384 574 556 385 575 
1460 556 385 575 56 47 57 
1461 26 33 27 386 519 405 
1462 386 519 405 387 520 406 
1463 387 520 406 388 521 407 
1464 388 521 407 389 522 408 
1465 389 522 408 390 523 409 
1466 390 523 409 391 524 410 
1467 391 524 410 392 525 411 
1468 392 525 411 393 526 412 
1469 393 526 412 394 527 413 
1470 394 527 413 395 528 414 
1471 395 528 414 396 529 415 
1472 396 529 415 397 530 416 
1473 397 530 416 398 531 417 
1474 398 531 417 399 532 418 
1475 399 532 418 400 533 419 
1476 400 533 419 401 534 420 
1477 401 534 420 402 535 421 
1478 402 535 421 403 536 422 
1479 403 536 422 404 537 423 
1480 404 537 423 48 55 49 
1481 34 33 26 538 519 386 
1482 538 519 386 539 520 387 
1483 539 520 387 540 521 388 
1484 540 521 388 541 522 389 
1485 541 522 389 542 523 390 
1486 542 523 390 543 524 391 
1487 543 524 391 544 525 392 
1488 544 525 392 545 526 393 
1489 545 526 393 546 527 394 
1490 546 527 394 547 528 395 
1491 547 528 395 548 529 396 
1492 548 529 396 549 530 397 
1493 549 530 397 550 531 398 
1494 550 531 398 551 532 399 
1495 551 532 399 552 533 400 
1496 552 533 400 553 534 401 
1497 553 534 401 554 535 402 
1498 554 535 402 555 536 403 
1499 555 536 403 556 537 404 
1500 556 537 404 56 55 48 
1501 28 30 29 424 462 443 
1502 424 462 443 425 463 444 
1503 425 463 444 426 464 445 
1504 426 464 445 427 465 446 
1505 427 465 446 428 466 447 
1506 428 466 447 429 467 448 
1507 429 467 448 430 468 449 
1508 430 468 449 431 469 450 
1509 431 469 450 432 470 451 
1510 432 470 451 433 471 452 
1511 433 471 452 434 472 453 
1512 434 472 453 435 473 454 
1513 435 473 454 436 474 455 
1514 436 474 455 437 475 456 
1515 437 475 456 438 476 457 
1516 438 476 457 439 477 458 
1517 439 477 458 440 478 459 
1518 440 478 459 441 479 460 
1519 441 479 460 442 480 461 
1520 442 480 461 50 52 51 
1521 31 30 28 481 462 424 
1522 481 462 424 482 463 425 
1523 482 463 425 483 464 426 
1524 483 464 426 484 465 427 
1525 484 465 427 485 466 428 
1526 485 466 428 486 467 429 
1527 486 467 429 487 468 430 
1528 487 468 430 488 469 431 
1529 488 469 431 489 470 432 
1530 489 470 432 490 471 433 
1531 490 471 433 491 472 434 
1532 491 472 434 492 473 435 
1533 492 473 435 493 474 436 
1534 493 474 436 494 475 437 
1535 494 475 437 495 476 438 
1536 495 476 438 496 477 439 
1537 496 477 439 497 478 440 
1538 497 478 440 498 479 441 
1539 498 479 441 499 480 442 
1540 499 480 442 53 52 50 
$EndElements
